#!OML:ASF F:\VICON\USERDATA\INSTALL\rory3\rory3.ASF
:FULLY-SPECIFIED
:DEGREES
484
root 4.61206 16.087 2.12486 20.1927 -8.21605 -3.10977
lowerback 9.6619 -0.386519 3.08365
upperback 1.31671 -0.177861 0.374565
thorax -4.05625 -0.13354 -1.32332
lowerneck -14.3104 -0.509365 -1.35805
upperneck 38.3107 0.278056 -1.90731
head 16.0383 -0.392303 -0.550043
rclavicle 3.27995e-015 -1.19271e-014
rhumerus -60.2747 34.3813 -80.6781
rradius 81.4294
rwrist -13.9813
rhand -12.3 -39.0829
rfingers 7.12502
rthumb 13.7678 -68.6074
lclavicle 3.27995e-015 -1.19271e-014
lhumerus -46.0921 -50.641 78.0204
lradius 69.829
lwrist 35.893
lhand -19.7365 -29.7649
lfingers 7.12502
lthumb 6.59417 0.112388
rfemur -73.0823 3.75796 15.7772
rtibia 37.1535
rfoot 38.7204 1.48068
rtoes 3.73419
lfemur -51.2713 -2.89167 -26.1234
ltibia 56.5517
lfoot -22.9227 7.76028
ltoes 13.1351
485
root 4.60929 16.0747 2.12093 20.3339 -8.34912 -3.09801
lowerback 9.69868 -0.355265 2.97445
upperback 1.57741 -0.153547 0.348147
thorax -3.80373 -0.114279 -1.29293
lowerneck -15.3614 -0.496134 -1.16212
upperneck 38.4501 0.325997 -2.06173
head 16.3714 -0.369679 -0.652399
rclavicle -1.35174e-014 -1.43125e-014
rhumerus -59.7627 34.6662 -80.5004
rradius 81.0102
rwrist -13.7103
rhand -12.8884 -38.8858
rfingers 7.12502
rthumb 13.2007 -68.4478
lclavicle -1.35174e-014 -1.43125e-014
lhumerus -45.5324 -50.6821 77.3636
lradius 69.4807
lwrist 35.7359
lhand -19.859 -30.5376
lfingers 7.12502
lthumb 6.47597 -0.656573
rfemur -73.3049 3.79878 15.7974
rtibia 37.1399
rfoot 38.7548 1.34913
rtoes 4.0836
lfemur -51.5454 -2.66928 -26.209
ltibia 56.7347
lfoot -23.0775 7.48798
ltoes 14.6824
486
root 4.60905 16.0693 2.12108 20.3628 -8.43616 -3.17084
lowerback 9.77847 -0.30136 2.99004
upperback 1.48325 -0.0732777 0.403428
thorax -3.94258 -0.0773334 -1.25436
lowerneck -14.9102 -0.525681 -1.26571
upperneck 38.3318 0.309577 -2.07952
head 16.1981 -0.391026 -0.639707
rclavicle -2.98177e-016 -1.25234e-014
rhumerus -60.4329 34.9702 -80.7071
rradius 80.8902
rwrist -13.4844
rhand -13.2271 -39.0655
rfingers 7.12502
rthumb 12.8743 -68.6484
lclavicle -2.98177e-016 -1.25234e-014
lhumerus -46.2806 -50.9964 77.88
lradius 69.1444
lwrist 35.6051
lhand -20.1537 -31.0052
lfingers 7.12502
lthumb 6.19147 -1.11566
rfemur -73.3531 3.76935 16.0105
rtibia 37.1504
rfoot 38.7287 1.57631
rtoes 3.79137
lfemur -51.6343 -2.47767 -26.1954
ltibia 56.8957
lfoot -23.0562 7.25516
ltoes 13.7513
487
root 4.61366 16.0682 2.12304 20.3083 -8.36995 -3.34912
lowerback 9.84863 -0.342594 3.22345
upperback 1.58046 -0.100673 0.460421
thorax -3.88171 -0.0919795 -1.32292
lowerneck -14.8392 -0.512223 -1.32491
upperneck 38.2066 0.321422 -2.01969
head 16.1156 -0.38519 -0.598497
rclavicle 1.97791e-014 9.34288e-015
rhumerus -60.666 35.2397 -80.7431
rradius 80.8956
rwrist -13.2318
rhand -12.9317 -39.7864
rfingers 7.12502
rthumb 13.159 -69.3511
lclavicle 1.97791e-014 9.34288e-015
lhumerus -46.5342 -51.0997 77.9299
lradius 68.8099
lwrist 35.414
lhand -20.0839 -30.7103
lfingers 7.12502
lthumb 6.25884 -0.822776
rfemur -73.2537 3.58213 16.4636
rtibia 37.1793
rfoot 38.6869 2.01513
rtoes 3.2175
lfemur -51.5973 -2.38875 -26.0431
ltibia 57.0222
lfoot -23.0035 7.23355
ltoes 12.537
488
root 4.61786 16.0636 2.12296 20.2477 -8.3223 -3.41469
lowerback 9.94573 -0.379439 3.35206
upperback 1.64493 -0.132731 0.481153
thorax -3.87014 -0.108597 -1.36948
lowerneck -14.7692 -0.462019 -1.28674
upperneck 38.1747 0.393412 -2.05033
head 16.0826 -0.353794 -0.605169
rclavicle -1.16289e-014 -4.37326e-015
rhumerus -60.8835 35.4863 -80.7683
rradius 80.88
rwrist -13.1069
rhand -12.5917 -40.2756
rfingers 7.12502
rthumb 13.4868 -69.819
lclavicle -1.16289e-014 -4.37326e-015
lhumerus -46.9343 -51.1 78.0845
lradius 68.516
lwrist 34.9216
lhand -19.4137 -29.8074
lfingers 7.12502
lthumb 6.90577 0.0599169
rfemur -73.1984 3.41271 16.737
rtibia 37.2088
rfoot 38.6817 2.07321
rtoes 3.0082
lfemur -51.5644 -2.24939 -26.0446
ltibia 57.1122
lfoot -23.0593 7.15003
ltoes 12.474
489
root 4.62039 16.0605 2.11848 20.2605 -8.40567 -3.33091
lowerback 10.011 -0.338158 3.2825
upperback 1.64082 -0.0845517 0.438602
thorax -3.90831 -0.0847542 -1.38085
lowerneck -14.7167 -0.493551 -1.31745
upperneck 38.262 0.330157 -1.98474
head 16.1139 -0.375663 -0.583218
rclavicle 2.09718e-014 -1.07344e-014
rhumerus -61.2318 35.7048 -80.9227
rradius 80.5913
rwrist -13.1239
rhand -12.795 -39.6375
rfingers 7.12502
rthumb 13.2908 -69.1937
lclavicle 2.09718e-014 -1.07344e-014
lhumerus -47.3039 -51.3547 78.2396
lradius 68.2188
lwrist 34.4857
lhand -18.8199 -29.4228
lfingers 7.12502
lthumb 7.479 0.425035
rfemur -73.2709 3.29166 16.8185
rtibia 37.2191
rfoot 38.6845 2.1646
rtoes 2.99656
lfemur -51.6489 -2.0606 -26.2233
ltibia 57.1704
lfoot -23.1179 7.16515
ltoes 12.0305
490
root 4.61975 16.0595 2.11354 20.3268 -8.49824 -3.27343
lowerback 9.96464 -0.278969 3.17486
upperback 1.66437 -0.0205947 0.427173
thorax -3.85494 -0.0508258 -1.34064
lowerneck -14.5699 -0.545734 -1.35457
upperneck 38.1549 0.263815 -1.99646
head 16.0223 -0.407904 -0.590527
rclavicle 6.36111e-015 -2.06736e-014
rhumerus -61.5612 35.9219 -81.1221
rradius 80.122
rwrist -13.0618
rhand -13.2236 -38.9055
rfingers 7.12502
rthumb 12.8777 -68.4883
lclavicle 6.36111e-015 -2.06736e-014
lhumerus -47.5221 -51.7978 78.3339
lradius 67.8955
lwrist 34.3134
lhand -18.6014 -29.2911
lfingers 7.12502
lthumb 7.68989 0.549098
rfemur -73.3829 3.24494 16.8597
rtibia 37.2062
rfoot 38.7544 2.44134
rtoes 3.03552
lfemur -51.798 -1.89668 -26.3365
ltibia 57.2292
lfoot -23.1843 7.15684
ltoes 11.6128
491
root 4.61367 16.0517 2.10891 20.3773 -8.58656 -3.22929
lowerback 9.96283 -0.238785 2.99834
upperback 1.6774 0.0149408 0.461385
thorax -3.83885 -0.0305317 -1.21042
lowerneck -14.2975 -0.514507 -1.20826
upperneck 37.8721 0.367962 -2.29273
head 15.8135 -0.380342 -0.72026
rclavicle -2.67365e-014 -1.07344e-014
rhumerus -61.8193 36.1947 -81.2375
rradius 79.768
rwrist -12.7632
rhand -12.9061 -39.689
rfingers 7.12502
rthumb 13.1837 -69.2522
lclavicle -2.67365e-014 -1.07344e-014
lhumerus -47.8712 -52.1435 78.5791
lradius 67.5684
lwrist 34.1861
lhand -18.8951 -29.4549
lfingers 7.12502
lthumb 7.40643 0.395491
rfemur -73.4973 3.3881 16.7071
rtibia 37.1829
rfoot 38.9016 2.45548
rtoes 3.04538
lfemur -51.9571 -1.67596 -26.4259
ltibia 57.3148
lfoot -23.1965 6.81654
ltoes 11.9743
492
root 4.60952 16.0394 2.10505 20.4546 -8.65537 -3.18285
lowerback 10.0392 -0.235966 2.86493
upperback 1.6816 0.0071964 0.461996
thorax -3.87732 -0.0331535 -1.13372
lowerneck -14.3583 -0.475538 -1.09271
upperneck 37.8779 0.432735 -2.40279
head 15.8323 -0.352632 -0.777819
rclavicle -4.17448e-015 1.03368e-014
rhumerus -61.8552 36.4997 -81.1874
rradius 79.5481
rwrist -12.1342
rhand -11.7764 -40.9024
rfingers 7.12502
rthumb 14.2725 -70.3919
lclavicle -4.17448e-015 1.03368e-014
lhumerus -48.0929 -52.175 78.549
lradius 67.3291
lwrist 33.7926
lhand -19.3063 -30.0214
lfingers 7.12502
lthumb 7.0095 -0.157505
rfemur -73.6614 3.51595 16.5223
rtibia 37.2003
rfoot 38.9411 2.25118
rtoes 3.07409
lfemur -52.1464 -1.47852 -26.5312
ltibia 57.421
lfoot -23.1762 6.52138
ltoes 11.9555
493
root 4.61029 16.0332 2.10464 20.5415 -8.67226 -3.16253
lowerback 10.0447 -0.250999 2.85263
upperback 1.74885 -0.0165358 0.434091
thorax -3.81123 -0.0434377 -1.15274
lowerneck -14.8029 -0.492716 -1.15936
upperneck 38.1731 0.360506 -2.19013
head 16.0902 -0.367748 -0.694532
rclavicle -1.45113e-014 -5.96354e-016
rhumerus -62.1276 36.413 -81.2467
rradius 79.4419
rwrist -11.2647
rhand -11.0311 -40.9106
rfingers 7.12502
rthumb 14.9905 -70.348
lclavicle -1.45113e-014 -5.96354e-016
lhumerus -48.2319 -52.1586 78.3591
lradius 67.1121
lwrist 33.1735
lhand -19.7378 -30.3951
lfingers 7.12502
lthumb 6.59291 -0.517764
rfemur -73.84 3.49176 16.4781
rtibia 37.3196
rfoot 38.904 1.95318
rtoes 3.69535
lfemur -52.3152 -1.34779 -26.6106
ltibia 57.5255
lfoot -23.195 6.40194
ltoes 11.7685
494
root 4.61208 16.0289 2.1086 20.5707 -8.67853 -3.08589
lowerback 10.026 -0.266379 2.81087
upperback 1.83844 -0.0453497 0.400381
thorax -3.70875 -0.0552488 -1.16059
lowerneck -15.1246 -0.545611 -1.22265
upperneck 38.353 0.272388 -2.08903
head 16.2617 -0.402114 -0.659806
rclavicle 1.59028e-015 -9.93923e-016
rhumerus -62.2863 36.5852 -81.3464
rradius 79.0982
rwrist -10.9373
rhand -11.3232 -40.1661
rfingers 7.12502
rthumb 14.7092 -69.6243
lclavicle 1.59028e-015 -9.93923e-016
lhumerus -48.418 -52.2424 78.3137
lradius 66.7612
lwrist 32.4875
lhand -20.162 -30.8559
lfingers 7.12502
lthumb 6.18337 -0.966161
rfemur -73.9778 3.38192 16.4513
rtibia 37.484
rfoot 38.923 1.69656
rtoes 4.27633
lfemur -52.3931 -1.19882 -26.7763
ltibia 57.6129
lfoot -23.3006 6.20861
ltoes 12.3521
